<svg id="s1" data-name="s1" xmlns="http://www.w3.org/2000/svg" viewBox="0 0 201 201">
    <defs>
        <style>.cls-1{fill:#dec5b3;}</style>
    </defs>
    <rect class="cls-1" width="201" height="201"/>
    <path d="M99,95.18q-.89,17.46-9.81,26.75T64,131.22q-16.35,0-26-12.42T28.42,85.11V65.41q0-21.19,9.89-33.5t27-12.31Q81,19.6,89.65,29T99,55.93H85.21q-.9-13.27-5.6-19T65.28,31.31Q54.16,31.31,48.2,40t-6,25.49V85.41q0,16.49,5.56,25.3T64,119.51q10.67,0,15.37-5.3t5.82-19Z"
          transform="translate(1 0)"/>
    <path d="M163.74,164H152.42L116.55,95v69H105.23V74.44h11.32l36,69.34V74.44h11.2Z" transform="translate(1 0)"/>
    <path d="M105.43,45.69a11.76,11.76,0,0,1,2.38-7.78,7.8,7.8,0,0,1,6.3-2.87,7.88,7.88,0,0,1,6.3,2.79,11.57,11.57,0,0,1,2.45,7.61v2.37a11.76,11.76,0,0,1-2.37,7.75,8.49,8.49,0,0,1-12.62.08,11.47,11.47,0,0,1-2.44-7.5Zm3.68,2.12a9.56,9.56,0,0,0,1.37,5.47,4.25,4.25,0,0,0,3.67,2q4.88,0,5-7V45.69a9.53,9.53,0,0,0-1.37-5.47,4.27,4.27,0,0,0-3.69-2,4.2,4.2,0,0,0-3.63,2,9.54,9.54,0,0,0-1.37,5.44Z"
          transform="translate(1 0)"/>
    <path d="M126.84,45.71c0-3.48.65-6.12,1.95-7.94A6.44,6.44,0,0,1,134.38,35a5.8,5.8,0,0,1,5,2.63V26h3.69V58h-3.38l-.18-2.42a5.8,5.8,0,0,1-5.19,2.83,6.42,6.42,0,0,1-5.49-2.72c-1.33-1.81-2-4.37-2-7.67Zm3.69,2.09a10.67,10.67,0,0,0,1.12,5.56,4,4,0,0,0,3.67,1.78,4.36,4.36,0,0,0,4.1-2.76V41a4.42,4.42,0,0,0-4.08-2.71,4,4,0,0,0-3.67,1.78,10.53,10.53,0,0,0-1.14,5.46Z"
          transform="translate(1 0)"/>
    <path d="M156.83,58.41a8.19,8.19,0,0,1-6.45-2.51c-1.5-1.67-2.27-4.13-2.29-7.36V45.81c0-3.36.73-6,2.19-7.9A7.3,7.3,0,0,1,156.42,35a7,7,0,0,1,5.91,2.52q2,2.52,2,7.85v2.42H151.75v.52c0,2.42.46,4.17,1.37,5.27A4.8,4.8,0,0,0,157,55.27a6.38,6.38,0,0,0,2.87-.62,7.24,7.24,0,0,0,2.32-1.94L164.15,55Q161.75,58.42,156.83,58.41Zm-.41-20.2a3.87,3.87,0,0,0-3.4,1.57,9.44,9.44,0,0,0-1.25,4.89h8.88v-.5a8.7,8.7,0,0,0-1.16-4.59A3.57,3.57,0,0,0,156.42,38.21Z"
          transform="translate(1 0)"/>
    <path d="M84.36,162.08v-.26a10.33,10.33,0,0,0,.54-3.43v-8.64a5.06,5.06,0,0,1,1.4-3.8,5.56,5.56,0,0,1,4-1.31,6.32,6.32,0,0,1,2.93.68,5.5,5.5,0,0,1,2.09,1.88,4.56,4.56,0,0,1,.77,2.5h-2.8a2.49,2.49,0,0,0-.79-1.9,2.87,2.87,0,0,0-2.06-.75,2.92,2.92,0,0,0-2.07.64,3,3,0,0,0-.68,2.19v1.82h2.06a7.29,7.29,0,0,1,4.85,1.56,5.2,5.2,0,0,1,1.78,4.15,5,5,0,0,1-1.31,3.68,4.9,4.9,0,0,1-3.63,1.3,4.47,4.47,0,0,1-3.8-2.18,6.09,6.09,0,0,1-.36,1.87ZM93,159.19a3.13,3.13,0,0,0,.59-2.11,2.85,2.85,0,0,0-1.16-2.42,5.33,5.33,0,0,0-3.15-.89H87.68v4.08A3.57,3.57,0,0,0,89,159.28a3.79,3.79,0,0,0,2,.56A2.54,2.54,0,0,0,93,159.19Z"
          transform="translate(1 0)"/>
    <path d="M80.55,145v17.12H77.76V149.25a3,3,0,0,0-3-2.12q-2.85,0-2.89,3.55v11.4H69.06V150.61a4.39,4.39,0,0,0-.92-2.5,2.48,2.48,0,0,0-2-1,2.59,2.59,0,0,0-2.25.91,4.71,4.71,0,0,0-.66,2.77v11.27H60.39V150.54q.12-5.89,4.84-5.9a5.09,5.09,0,0,1,4.5,2.49,4,4,0,0,1,4-2.49,5.09,5.09,0,0,1,4.13,1.9l.06-1.58Z"
          transform="translate(1 0)"/>
    <path d="M44.51,159.83,46,158.06a5.46,5.46,0,0,0,1.77,1.48,4.81,4.81,0,0,0,2.17.46,3.62,3.62,0,0,0,3-1.25,6.16,6.16,0,0,0,1-4v-.4H44.37v-1.83q0-4.05,1.51-6a5.35,5.35,0,0,1,4.5-1.92A5.56,5.56,0,0,1,55,146.82a9.66,9.66,0,0,1,1.67,6v2.07a8.32,8.32,0,0,1-1.75,5.6,6.22,6.22,0,0,1-4.9,1.9A6.34,6.34,0,0,1,44.51,159.83ZM48,148.09a6.55,6.55,0,0,0-.87,3.48V152h6.74a7.14,7.14,0,0,0-.95-3.71,2.93,2.93,0,0,0-2.58-1.19A2.71,2.71,0,0,0,48,148.09Z"
          transform="translate(1 0)"/>
    <path d="M33.42,159.38a3.19,3.19,0,0,0,2.12.62,3.19,3.19,0,0,0,2.31-.8,3.15,3.15,0,0,0,.87-2.24h2.81a5.07,5.07,0,0,1-1.66,3.9,6.13,6.13,0,0,1-4.33,1.53,6,6,0,0,1-4.12-1.34,4.5,4.5,0,0,1-1.53-3.57,4.1,4.1,0,0,1,1.12-3,12.59,12.59,0,0,1,4.24-2.38,9.12,9.12,0,0,0,2.48-1.37,1.89,1.89,0,0,0,.51-1.37,2.21,2.21,0,0,0-.7-1.72,2.81,2.81,0,0,0-1.94-.63,2.63,2.63,0,0,0-2,.81,2.77,2.77,0,0,0-.77,2H30.06a4.94,4.94,0,0,1,1.52-3.73,5.6,5.6,0,0,1,4-1.46A5.56,5.56,0,0,1,39.5,146,4.48,4.48,0,0,1,41,149.5a4.16,4.16,0,0,1-.46,2A4.69,4.69,0,0,1,39.18,153,16.89,16.89,0,0,1,36,154.62a10.05,10.05,0,0,0-2.63,1.52,2.21,2.21,0,0,0,.05,3.24Z"
          transform="translate(1 0)"/>
</svg>